# xmcd
#
# Track frame offsets: 
#        150
#        13755
#        24759
#        36994
#        67538
#        80073
#        91983
#        102515
#        115261
#        127940
#        153081
#        160238
#        172870
#        186450
#        198922
#        215332
#        232078
#
# Disc length: 3218 seconds
#
# Revision: 0
# Processed by: cddbd v1.5.2PL0 Copyright (c) Steve Scherf et al.
# Submitted via: ExactAudioCopy v0.95b4
#
DISCID=d30c9011
DTITLE=The Staple Singers - The Best Of The Vee-Jay Years
DYEAR=2007
DGENRE=Gospel
TTITLE0=Uncloudy Day
TTITLE1=I Know I Got Religion
TTITLE2=Swing Down Chariot (AKA Let Me Ride)
TTITLE3=I'm Coming Home (parts 1&2)
TTITLE4=Help Me Jesus
TTITLE5=Low Is The Way
TTITLE6=So Soon
TTITLE7=Will The Circle Be Unbroken
TTITLE8=Pray On
TTITLE9=Too Close
TTITLE10=Let's Go Home
TTITLE11=I've Been Scorned
TTITLE12=Swing Low
TTITLE13=Sit Down Servant
TTITLE14=Stand By Me
TTITLE15=The Day Is Passed And Gone
TTITLE16=This May Be The Last Time
EXTD=
EXTT0=
EXTT1=
EXTT2=
EXTT3=
EXTT4=
EXTT5=
EXTT6=
EXTT7=
EXTT8=
EXTT9=
EXTT10=
EXTT11=
EXTT12=
EXTT13=
EXTT14=
EXTT15=
EXTT16=
PLAYORDER=
